<svg xmlns="http://www.w3.org/2000/svg" height="24" viewBox="0 -960 960 960" width="24"><path d="M570.77-180.001V-240h98.845q21.231 0 35.808-14.385Q720-268.77 720-289.231v-82.308q0-35.692 21.231-64 21.23-28.307 55.307-39.384v-10.154q-34.077-11.077-55.307-39.384-21.231-28.308-21.231-64v-82.308q0-20.461-14.577-34.846Q690.846-720 669.615-720H570.77v-59.999h98.845q46.153 0 78.268 31.923 32.116 31.923 32.116 77.307v82.308q0 21.231 14.961 35.616 14.962 14.385 36.578 14.385h28.461v116.92h-28.461q-21.616 0-36.578 14.385-14.961 14.385-14.961 35.616v82.308q0 45.384-32.116 77.307-32.115 31.923-78.268 31.923H570.77Zm-280.385 0q-45.769 0-78.076-31.923-32.308-31.923-32.308-77.307v-82.308q0-21.231-14.961-35.616-14.962-14.385-36.578-14.385h-28.461v-116.92h28.461q21.616 0 36.578-14.385 14.961-14.385 14.961-35.616v-82.308q0-45.384 32.308-77.307 32.307-31.923 78.076-31.923h99.23V-720h-99.23q-20.846 0-35.616 14.385Q240-691.23 240-670.769v82.308q0 35.692-21.038 64-21.039 28.307-55.5 39.384v10.154q34.461 11.077 55.5 39.384 21.038 28.308 21.038 64v82.308q0 20.461 14.769 34.846Q269.539-240 290.385-240h99.23v59.999h-99.23Z"/></svg>