<svg xmlns="http://www.w3.org/2000/svg" height="24" viewBox="0 -960 960 960" width="24"><path d="m500.001-114.618-6.153-105.383H460q-133.538 0-226.768-93.231-93.231-93.23-93.231-226.768t93.231-226.768q93.23-93.231 226.768-93.231 66.769 0 124.807 24.962 58.038 24.961 101.654 68.576 43.615 43.616 68.576 101.654Q779.999-606.769 779.999-540q0 68.076-21.231 130.73-21.231 62.653-58.346 117.23-37.115 54.576-88.499 99.692-51.384 45.115-111.922 77.73ZM560-226q71-60 115.5-140.5T720-540q0-109-75.5-184.5T460-800q-109 0-184.5 75.5T200-540q0 109 75.5 184.5T460-280h100v54Zm-99.846-103.078q14.692 0 24.961-10.269 10.269-10.269 10.269-24.961 0-14.692-10.269-24.961-10.269-10.269-24.961-10.269-14.692 0-24.961 10.269-10.269 10.269-10.269 24.961 0 14.692 10.269 24.961 10.269 10.269 24.961 10.269Zm-23.23-121.999h47.691q.769-27.308 7.731-40.462 6.961-13.154 37.808-44 17.615-17.615 28.653-37.076 11.039-19.462 11.039-43.077 0-47.154-32.192-72.269-32.193-25.115-76.885-25.115-40.538 0-68.422 22.384-27.885 22.385-39.885 53.923l44.461 17.384q6.538-17.385 21.308-32.923 14.769-15.538 42.538-15.538 30.462 0 45.308 16.73 14.847 16.731 14.847 36.655 0 18.538-10.193 32.23-10.192 13.693-25.346 28.847-31.923 27.692-40.192 46.538-8.269 18.846-8.269 55.769ZM460-513Z"/></svg>