<svg width="209" height="245" viewBox="0 0 209 245" fill="none" xmlns="http://www.w3.org/2000/svg">
<path d="M183.5 89H176.5C177 92.6667 174.3 100.9 159.5 104.5C159.667 99.8333 159.3 88.6 156.5 81C165.5 78.3333 180.8 69.6 170 56C159.2 42.4 137.5 21 106 21C74.5 21 49 43.5 42.5 56C41.3333 58.1667 39 63.3 39 66.5C38.8333 69.1667 42 75.8 56 81C55 86.6667 53.5 104.5 55 105.5C56.5 106.5 61.5 107.5 62 107C62.5 106.5 60 105.5 64.5 84C71.8333 85.6667 89.6 88.9 102 88.5V111.5C83.2 111.1 74.2053 108.87 72 109C69.7947 109.13 68.1297 110.795 68 113C67.8619 115.347 69.6528 117.362 72 117.5C73.6459 117.597 89.6 120 102 120V135.5H110.5V120C121.549 119.931 136.979 118.772 150.839 115.675M183.5 89C192.3 127.4 165.167 157 150.5 167C110.5 189.5 69 179 46 151.5C27.6 129.5 26.6892 105 28.5338 95.5M183.5 89C184.842 95.2958 182.395 100.396 177.571 104.5M110.5 36C119.3 37.6 126.833 44 129.5 47C124.3 49 114.667 49.5 110.5 49.5V36ZM110.5 36V30C112.817 30 116.66 30.3904 121.259 31.5M102 36V49.5C98.3333 49.5 89.5 49 83.5 47C85.8333 44 92.8 37.6 102 36ZM102 36V30C96 30 90.1667 32 88 33M88 33C81.6 37 76.6667 42 75 44C71 42.8 70.3333 41.5 70.5 41C78.1 35.4 85.3333 33.3333 88 33ZM121.259 31.5C127.577 33.0246 135.323 35.9069 142.5 41L138 44C130 36 123.506 32.3333 121.259 31.5ZM28.5338 95.5C28.1458 92.5824 28.8634 89.8793 29.5 88.5H35.5C35.1667 91.1667 36.1 97.3 42.5 100.5C45 102.096 46 101.5 46 105.5C46 108.7 44.5 109 42.5 109.5C39.8159 108.307 37.4876 107.292 35.1968 105.5M28.5338 95.5C28.7553 97.1656 29.3371 98.901 30.5 100.5C32.1142 102.719 33.6469 104.288 35.1968 105.5M35.1968 105.5C34.9645 118.833 43.1 149.4 77.5 165C73.6667 161.167 65.2 152 62 146M62 146C60.067 145.724 58.7239 143.933 59 142C59.2343 140.36 60.3598 139.234 62 139C65 138 87 143.5 110.5 143.5C129.3 143.5 146.667 139.5 153 137.5C159.5 135.758 160.5 139 159.5 142C159.13 143.109 155.957 144.561 150.839 146M62 146C64.3699 146.616 67.8183 147.391 72 148.167M72 148.167C82.5223 150.119 97.6879 152.072 112 151.5C122.549 151.078 132.475 149.855 140.5 148.356M72 148.167C76.6667 154.611 89.2 168.3 102 171.5V160H110.5V171.5C115.667 170.071 128.9 163.442 140.5 148.356M140.5 148.356C144.46 147.617 147.958 146.81 150.839 146M150.839 146C149.06 149.333 143.3 157.8 134.5 165C147.214 161 173.627 143.3 177.571 104.5M177.571 104.5C172.969 108.415 166.204 111.424 158.5 113.703M150.839 115.675C150.56 118.783 149.6 125.7 148 128.5C149.167 129 152.3 129.7 155.5 128.5C156.667 126.635 158.9 121.065 158.5 113.703M150.839 115.675C153.463 115.089 156.03 114.434 158.5 113.703M106 0.5C102.41 0.5 99.5 3.41015 99.5 7C99.5 10.5899 102.41 13.5 106 13.5C109.59 13.5 112.5 10.5899 112.5 7C112.5 3.41015 109.59 0.5 106 0.5ZM127 14C125.067 14 123.5 12.433 123.5 10.5C123.5 8.567 125.067 7 127 7C128.933 7 130.5 8.567 130.5 10.5C130.5 12.433 128.933 14 127 14ZM12.5 91C10.567 91 9 89.433 9 87.5C9 85.567 10.567 84 12.5 84C14.433 84 16 85.567 16 87.5C16 89.433 14.433 91 12.5 91ZM10 107.5C8.34314 107.5 7 106.157 7 104.5C7 102.843 8.34314 101.5 10 101.5C11.6569 101.5 13 102.843 13 104.5C13 106.157 11.6569 107.5 10 107.5ZM202 101C200.067 101 198.5 102.567 198.5 104.5C198.5 106.433 200.067 108 202 108C203.933 108 205.5 106.433 205.5 104.5C205.5 102.567 203.933 101 202 101ZM110.5 111.5V88.5C119 88.1667 138.4 86.8 148 84C149.333 88.1667 151.7 98.6 150.5 107C145.333 108.796 130.1 112.21 110.5 111.5ZM110.5 79.5C118.167 80 136 79.7 146 74.5C145.333 71.1667 142.2 62.4 135 54C132.333 55.1667 123.7 57.5 110.5 57.5V79.5ZM102 57.5V80C96.1667 80.1667 80.9 79.5 66.5 75.5C67.3333 71.3333 70.7 61.2 77.5 54C81.1667 55.2049 91.2 57.5917 102 57.5ZM62 47L70.5 51C67.8532 54 61.8477 62.5 59 72.5C54.6667 71.1667 46.4 67.5 48 63.5C50 58.5 57.5 50 62 47ZM142.5 51C145.187 54.3333 151.248 63.3 154 72.5C158 71.1667 165.8 67.5 165 63.5C162.5 59.6667 156.1 50.8 150.5 46C148.833 47 144.9 49.4 142.5 51ZM194 137.5C192 136.5 190 139.5 188 143.5C186 147.5 185 149 183.5 152.5C182 156 183.5 157 183.5 157C183.5 157 185 159 187.5 155C190 151 192.5 145.5 193.5 143.5C194.5 141.5 196 138.5 194 137.5ZM54 114.5C54.3333 118.5 55.4 126.9 57 128.5C59 130.5 64.5 129.5 64.5 128.5C64.5 127.5 62 123 62 116C56 114 54.1667 114.167 54 114.5ZM70.5 15.5C68.7774 12.6027 62 17 62 17C56.5 20 43.9 28 37.5 36C37 38.1667 37.3 41.7 42.5 38.5C45.1667 35.8333 53.3 28.8 64.5 22C64.5 22 72.2654 18.4694 70.5 15.5ZM32.5 45.5C29.8032 43.3426 23 56.5 23 56.5L19.5 63.5C19.5 63.5 17 68.5 19.5 69.5C22 70.5 23.3308 68.1825 23.5 67.5C25.2677 63.3333 25.5 63.5 32.5 51C32.5 51 35.1968 47.6574 32.5 45.5ZM142.5 15.5C140 18.7527 146 21 146 21C148.833 22 157.6 26.9 170 38.5C185.5 53 187 66.5 190 69.5C193 72.5 195.5 68 193.5 63.5C191.5 59 188.5 49.5 172.5 33C161.3 22.6 151.5 17 148 15.5C148 15.5 143.809 13.797 142.5 15.5ZM19.5 138C17.3169 138.873 19 144 19 144C19.6667 146 21.9 151.2 25.5 156C25.5 156 28 158.5 29.5 157C31 155.5 29.5 153 29.5 153C28.3333 150.667 25.6 145.2 24 142C24 142 21.6831 137.127 19.5 138ZM35.5 164C35 164.5 34 166 35.5 168C37 170 41.5 175 49 180.5C56.5 186 57.75 184.5 58.5 184C60 183 59 180.5 52 175.5C51.2888 174.992 50.6241 174.494 50 174.008C44.4817 169.708 40.5 165.5 39 164.5C37.5 163.5 36 163.5 35.5 164ZM154 184C153 183.684 153 181.333 156.5 179C161 176 172.8 165 174 163.5C175.2 162 180.5 163.5 177 168C175.444 170 174.026 171.399 165 179C155.5 187 155 184.316 154 184ZM40.5 207.5L33.5 212.5C28.5 207.667 16.8 202.2 10 219C9.5 224 11.6 234.1 24 234.5C25.6667 234.667 29.9 233.8 33.5 229C35.6667 230.333 40.1 233.1 40.5 233.5C41 234 40 241 24 244C16 243.667 0.0999991 238.2 0.499999 219C0.999999 195 33 193 40.5 207.5ZM81.5 198C68.7975 198 58.5 208.297 58.5 221C58.5 233.703 68.7975 244 81.5 244C94.2025 244 104.5 233.703 104.5 221C104.5 208.297 94.2025 198 81.5 198ZM81.5 207.5C73.7746 207.078 67 213.263 67 221C67 228.737 73.7746 234.922 81.5 234.5C88.8082 234.101 94.5 228.319 94.5 221C94.5 213.681 88.8082 207.899 81.5 207.5ZM122.5 199V243H130.5V230.5H140.5L148 243H158L149.5 229C149.5 229 159.5 224 158 214C156.5 204 148 199 143.5 199C139 199 122.5 199 122.5 199ZM131.5 207.5V222.5H143.5C143.5 222.5 148 222 148 215C148 208 143.5 207.5 143.5 207.5H131.5ZM176 199V243H208V234.5H185.5V225.5H206V217H185.5V207.5H208V199H176Z" stroke="black"/>
</svg>
